<svg id="Layer_1" enable-background="new 0 0 509.436 509.436" height="512" viewBox="0 0 509.436 509.436" width="512" xmlns="http://www.w3.org/2000/svg"><path d="m440.951 0h-372.467c-30.685 0-55.649 24.964-55.649 55.649v398.138c0 30.685 24.964 55.649 55.649 55.649h372.467c30.685 0 55.649-24.964 55.649-55.649v-398.138c.001-30.685-24.964-55.649-55.649-55.649zm-372.467 32.98h372.467c12.5 0 22.668 10.169 22.668 22.668v93.31h-417.803v-93.31c0-12.498 10.169-22.668 22.668-22.668zm372.467 443.475h-372.467c-12.5 0-22.668-10.169-22.668-22.668v-271.847h417.803v271.846c0 12.5-10.168 22.669-22.668 22.669z"/><path d="m122.123 215.232c-28.896 0-52.404 23.508-52.404 52.404s23.508 52.405 52.404 52.405 52.405-23.509 52.405-52.405-23.509-52.404-52.405-52.404zm0 71.828c-10.71 0-19.423-8.714-19.423-19.424s8.713-19.423 19.423-19.423 19.424 8.713 19.424 19.423-8.714 19.424-19.424 19.424z"/><path d="m122.123 343.31c-28.896 0-52.404 23.509-52.404 52.405s23.508 52.404 52.404 52.404 52.405-23.508 52.405-52.404-23.509-52.405-52.405-52.405zm0 71.828c-10.71 0-19.423-8.713-19.423-19.423s8.713-19.424 19.423-19.424 19.424 8.714 19.424 19.424-8.714 19.423-19.424 19.423z"/><path d="m245.955 215.232c-28.896 0-52.405 23.508-52.405 52.404s23.509 52.405 52.405 52.405 52.404-23.509 52.404-52.405-23.508-52.404-52.404-52.404zm0 71.828c-10.71 0-19.424-8.714-19.424-19.424s8.714-19.423 19.424-19.423 19.423 8.713 19.423 19.423-8.713 19.424-19.423 19.424z"/><path d="m245.955 343.31c-28.896 0-52.405 23.509-52.405 52.405s23.509 52.404 52.405 52.404 52.404-23.508 52.404-52.404-23.508-52.405-52.404-52.405zm0 71.828c-10.71 0-19.424-8.713-19.424-19.423s8.714-19.424 19.424-19.424 19.423 8.714 19.423 19.424-8.713 19.423-19.423 19.423z"/><path d="m378.999 215.232c-33.479 0-60.717 27.237-60.717 60.717v103.087c0 33.479 27.237 60.717 60.717 60.717 33.479 0 60.717-27.237 60.717-60.717v-103.087c.001-33.48-27.237-60.717-60.717-60.717zm27.737 163.804c0 15.246-12.395 27.736-27.737 27.736-15.294 0-27.736-12.442-27.736-27.736v-103.087c0-15.294 12.442-27.736 27.736-27.736s27.736 12.442 27.736 27.736v103.087z"/></svg>