<?xml version="1.0" encoding="iso-8859-1"?>
<!-- Generator: Adobe Illustrator 19.0.0, SVG Export Plug-In . SVG Version: 6.00 Build 0)  -->
<svg version="1.1" id="Capa_1" xmlns="http://www.w3.org/2000/svg" xmlns:xlink="http://www.w3.org/1999/xlink" x="0px" y="0px"
	 viewBox="0 0 512 512" style="fill: #e3a75e;" xml:space="preserve">
<g>
	<g>
		<path d="M340.156,9.834c-8.051-2.07-16.27,2.772-18.349,10.827l-53.523,207.322c-1.165,4.513-0.177,9.311,2.677,12.995
			c2.853,3.685,7.252,5.841,11.913,5.841H496.93c8.324,0,15.07-6.747,15.07-15.07C512,127.143,441.336,35.888,340.156,9.834z
			 M302.328,216.68l44.754-173.353c75.338,25.59,128.233,93.905,134.213,173.353H302.328z"/>
	</g>
</g>
<g>
	<g>
		<path d="M443.193,258.447H248.59l48.661-188.486c1.001-3.872,0.42-7.984-1.613-11.428c-2.033-3.443-5.353-5.939-9.226-6.934
			c-18.634-4.79-37.905-7.218-57.275-7.218c-61.204,0-118.744,23.834-162.023,67.113C23.834,154.773,0,212.313,0,273.517
			c0,61.2,23.834,118.737,67.114,162.015c43.279,43.278,100.819,67.112,162.022,67.112c61.2,0,118.737-23.834,162.015-67.112
			s67.112-100.815,67.112-162.015C458.263,265.195,451.516,258.447,443.193,258.447z M229.136,472.504
			c-109.728,0-198.996-89.266-198.996-198.987c0-109.727,89.269-198.996,198.996-198.996c11.772,0,23.498,1.031,35.016,3.072
			l-49.608,192.158c-1.164,4.513-0.176,9.311,2.678,12.995c2.853,3.685,7.253,5.841,11.913,5.841h198.423
			C419.832,391.296,333.789,472.504,229.136,472.504z"/>
	</g>
</g>
<g>
</g>
<g>
</g>
<g>
</g>
<g>
</g>
<g>
</g>
<g>
</g>
<g>
</g>
<g>
</g>
<g>
</g>
<g>
</g>
<g>
</g>
<g>
</g>
<g>
</g>
<g>
</g>
<g>
</g>
</svg>
