<?xml version="1.0" encoding="iso-8859-1"?>
<!-- Generator: Adobe Illustrator 19.0.0, SVG Export Plug-In . SVG Version: 6.00 Build 0)  -->
<svg style="fill: #fff;" version="1.1" xmlns="http://www.w3.org/2000/svg" xmlns:xlink="http://www.w3.org/1999/xlink" x="0px" y="0px"
	 viewBox="0 0 512 512" xml:space="preserve">
<g>
	<g>
		<path d="M474.6,415.398l-96.924-96.924c-13.31-13.31-35.07-13.211-48.507,0.227l-9.35,9.35
			c-9.566,9.566-24.981,9.829-34.365,0.587c-0.048-0.047-0.096-0.094-0.145-0.14c-0.886-0.857-32.904-31.852-101.947-101.951
			c-9.242-9.385-8.981-24.802,0.585-34.368l9.35-9.35c13.437-13.435,13.539-35.196,0.227-48.507L96.6,37.398
			c-13.603-13.603-35.275-13.005-48.507,0.227l-22.17,22.17C0.784,84.935-6.854,122.189,6.462,154.704
			C33.655,221.102,58.7,294.55,138.074,373.926c79.281,79.278,152.142,104.14,219.222,131.612
			c32.513,13.315,69.768,5.68,94.907-19.463l22.17-22.17C487.841,450.438,487.947,428.743,474.6,415.398z M453.163,442.697
			l-22.17,22.17c-16.565,16.564-41.033,21.634-62.329,12.912c-66.388-27.19-134.752-50.44-209.377-125.065
			c-74.8-74.8-97.909-143.069-125.065-209.378c-8.722-21.297-3.653-45.763,12.912-62.329l22.17-22.17
			c1.741-1.741,4.469-1.841,6.085-0.227l96.924,96.925c1.64,1.641,1.487,4.369-0.227,6.085l-9.35,9.35
			c-21.173,21.174-21.507,55.549-0.745,76.629c59.862,60.781,99.587,99.862,102.436,102.392l-0.022,0.023
			c21.103,20.782,55.477,20.4,76.626-0.749l9.35-9.35c1.713-1.712,4.443-1.867,6.085-0.227l96.924,96.924
			C455.005,438.228,454.903,440.957,453.163,442.697z"/>
	</g>
</g>
<g>
	<g>
		<path d="M464.629,47.372c-63.162-63.162-165.932-63.162-229.094,0c-5.858,5.857-5.858,15.354,0,21.211
			c5.857,5.857,15.354,5.857,21.211,0c51.465-51.465,135.206-51.465,186.671,0c51.465,51.465,51.465,135.206,0,186.671
			c-5.858,5.857-5.858,15.354,0,21.211c5.857,5.857,15.354,5.858,21.212,0.001C527.791,213.304,527.791,110.534,464.629,47.372z"/>
	</g>
</g>
<g>
	<g>
		<path d="M405.017,106.983c-30.29-30.293-79.58-30.293-109.871,0c-5.858,5.857-5.858,15.354,0,21.211
			c5.857,5.857,15.354,5.857,21.211,0c18.597-18.594,48.853-18.594,67.449,0c18.595,18.596,18.595,48.854,0,67.449
			c-5.858,5.857-5.858,15.354,0,21.211c5.857,5.857,15.353,5.858,21.211,0.001C435.309,186.563,435.309,137.275,405.017,106.983z"/>
	</g>
</g>
<g>
</g>
<g>
</g>
<g>
</g>
<g>
</g>
<g>
</g>
<g>
</g>
<g>
</g>
<g>
</g>
<g>
</g>
<g>
</g>
<g>
</g>
<g>
</g>
<g>
</g>
<g>
</g>
<g>
</g>
</svg>
