<?xml version="1.0" encoding="iso-8859-1"?>
<!-- Generator: Adobe Illustrator 19.0.0, SVG Export Plug-In . SVG Version: 6.00 Build 0)  -->
<svg version="1.1" id="Capa_1" xmlns="http://www.w3.org/2000/svg" xmlns:xlink="http://www.w3.org/1999/xlink" x="0px" y="0px"
	 viewBox="0 0 512 512" style="enable-background:new 0 0 512 512;" xml:space="preserve">
<g>
	<g>
		<path d="M269.145,240.999h-26.292c-13.474,0-24.435-10.961-24.435-24.434c0-13.474,10.962-24.437,24.435-24.437h52.583
			c8.284,0,15-6.716,15-15s-6.716-15-15-15h-24.437v-24.438c0-8.285-6.716-15.001-15-15.001c-8.284,0-15,6.716-15,15v24.484
			c-29.159,0.983-52.581,24.995-52.581,54.39c0,30.015,24.42,54.434,54.435,54.434h26.292c13.475,0,24.438,10.963,24.438,24.439
			c0,13.474-10.963,24.436-24.438,24.436h-52.582c-8.284,0-15,6.716-15,15s6.716,15,15,15h24.436v24.437c0,8.284,6.716,15,15,15
			c8.284,0,15-6.716,15-15v-24.483c29.16-0.982,52.584-24.994,52.584-54.389C323.582,265.419,299.161,240.999,269.145,240.999z"/>
	</g>
</g>
<g>
	<g>
		<path d="M442.762,321.127c-7.59-3.318-16.434,0.148-19.751,7.739c-29.018,66.405-94.573,109.313-167.014,109.313
			c-89.499,0-165.35-66.392-179.719-152.472l39.786,26.584c6.888,4.603,16.203,2.75,20.806-4.139
			c4.603-6.888,2.749-16.203-4.139-20.806l-65.583-43.821c-3.308-2.21-7.358-3.013-11.26-2.24c-3.902,0.776-7.335,3.071-9.546,6.379
			L2.529,313.247c-4.602,6.889-2.748,16.204,4.14,20.806c2.56,1.711,5.455,2.529,8.319,2.529c4.841,0,9.595-2.341,12.486-6.668
			l20.692-30.972c8.42,41.121,28.882,78.841,59.51,108.786c39.874,38.983,92.548,60.453,148.322,60.453
			c84.364,0,160.712-49.969,194.503-127.302C453.819,333.287,450.354,324.444,442.762,321.127z"/>
	</g>
</g>
<g>
	<g>
		<path d="M505.333,177.949c-6.89-4.602-16.204-2.749-20.806,4.139l-20.695,30.971c-8.42-41.122-28.882-78.842-59.51-108.787
			c-39.874-38.983-92.549-60.453-148.323-60.453c-84.363,0-160.711,49.97-194.503,127.302c-3.317,7.591,0.148,16.434,7.739,19.751
			s16.434-0.148,19.752-7.739c29.017-66.404,94.573-109.314,167.013-109.314c89.498,0,165.349,66.393,179.72,152.472l-39.786-26.582
			c-6.889-4.604-16.203-2.749-20.806,4.139c-4.602,6.889-2.749,16.204,4.14,20.806l65.581,43.818
			c2.56,1.711,5.455,2.529,8.319,2.529c4.842,0,9.594-2.34,12.485-6.668l43.818-65.577
			C514.073,191.866,512.22,182.551,505.333,177.949z"/>
	</g>
</g>
<g>
</g>
<g>
</g>
<g>
</g>
<g>
</g>
<g>
</g>
<g>
</g>
<g>
</g>
<g>
</g>
<g>
</g>
<g>
</g>
<g>
</g>
<g>
</g>
<g>
</g>
<g>
</g>
<g>
</g>
</svg>
